<?xml version="1.0" standalone="no"?>
<!DOCTYPE svg PUBLIC "-//W3C//DTD SVG 20010904//EN"
 "http://www.w3.org/TR/2001/REC-SVG-20010904/DTD/svg10.dtd">
<svg version="1.0" xmlns="http://www.w3.org/2000/svg"
 width="2000.000000pt" height="1500.000000pt" viewBox="0 0 2000.000000 1500.000000"
 preserveAspectRatio="xMidYMid meet">

<g transform="translate(0.000000,1500.000000) scale(0.100000,-0.100000)"
fill="#000000" stroke="none">
<path d="M5177 10738 c-103 -266 -677 -1754 -1276 -3308 l-1090 -2825 1341 -3
c738 -1 1343 0 1345 2 2 2 97 271 211 597 l208 594 1143 0 1143 0 89 -245 c49
-135 144 -404 211 -597 l121 -353 1688 0 1689 0 0 970 0 970 403 0 403 0 140
-222 c416 -668 744 -1223 965 -1635 l44 -83 1483 0 c1184 0 1482 3 1476 12 -5
7 -360 501 -789 1098 -430 597 -784 1090 -788 1096 -4 7 21 22 66 39 220 85
506 256 672 403 285 251 496 623 595 1045 73 311 88 721 39 1027 -60 365 -206
697 -426 970 -78 96 -267 279 -363 351 -395 296 -968 471 -1760 538 -288 25
-686 31 -2637 37 l-2053 7 0 -29 c0 -16 5 -126 10 -244 12 -265 37 -1023 45
-1340 3 -162 2 -229 -5 -215 -6 11 -167 425 -359 920 l-350 900 -1724 3 -1724
2 -186 -482z m8173 -1688 c453 -15 717 -42 857 -91 79 -27 93 -42 93 -99 0
-55 -13 -70 -87 -99 -207 -81 -633 -111 -1600 -111 l-613 0 0 205 0 205 523 0
c287 0 659 -5 827 -10z m-6190 -420 c177 -469 361 -973 357 -976 -2 -2 -211
-3 -463 -2 l-460 3 230 617 c127 340 233 614 237 610 4 -4 48 -117 99 -252z"/>
<path d="M10575 4339 c-1633 -4 -4038 -11 -5342 -15 l-2373 -6 0 -174 0 -174
423 0 c232 0 2877 7 5877 15 3000 8 5998 15 6663 15 l1207 0 0 175 0 175
-1742 -2 c-959 -1 -3079 -5 -4713 -9z"/>
</g>
</svg>
