<svg version="1.1" id="Layer_1" xmlns="http://www.w3.org/2000/svg" xmlns:xlink="http://www.w3.org/1999/xlink" x="0px" y="0px"
	 width="100%" viewBox="0 0 2000 1500" enable-background="new 0 0 2000 1500" xml:space="preserve">
<path fill="#010536" opacity="1.000000" stroke="none" 
	d="
M1404.000000,1501.000000 
	C936.000122,1501.000000 468.500275,1501.000000 1.000314,1501.000000 
	C1.000209,1001.000305 1.000209,501.000580 1.000105,1.000649 
	C667.666199,1.000433 1334.332397,1.000433 2000.998901,1.000216 
	C2000.999268,500.999359 2000.999268,1000.998718 2000.999634,1500.999023 
	C1802.166626,1501.000000 1603.333374,1501.000000 1404.000000,1501.000000 
M1202.500244,260.364319 
	C971.912048,260.364319 741.323792,260.364319 510.724396,260.364319 
	C510.724396,587.810913 510.724396,914.537415 510.724396,1241.275513 
	C837.811096,1241.275513 1164.537598,1241.275513 1491.275391,1241.275513 
	C1491.275391,914.188660 1491.275391,587.462158 1491.275391,260.364319 
	C1395.110474,260.364319 1299.305420,260.364319 1202.500244,260.364319 
z"/>
<path fill="#F9F9F6" opacity="1.000000" stroke="none" 
	d="
M1203.000244,260.364319 
	C1299.305420,260.364319 1395.110474,260.364319 1491.275391,260.364319 
	C1491.275391,587.462158 1491.275391,914.188660 1491.275391,1241.275513 
	C1164.537598,1241.275513 837.811096,1241.275513 510.724396,1241.275513 
	C510.724396,914.537415 510.724396,587.810913 510.724396,260.364319 
	C741.323792,260.364319 971.912048,260.364319 1203.000244,260.364319 
M1444.756226,1123.500122 
	C1444.756226,851.586548 1444.756226,579.672913 1444.756226,307.557831 
	C1148.701416,307.557831 853.186462,307.557831 557.601929,307.557831 
	C557.601929,603.386902 557.601929,898.901917 557.601929,1194.354126 
	C853.475159,1194.354126 1148.990234,1194.354126 1444.756226,1194.354126 
	C1444.756226,1170.802002 1444.756226,1147.651123 1444.756226,1123.500122 
z"/>
<path fill="#020636" opacity="1.000000" stroke="none" 
	d="
M1444.756226,1124.000244 
	C1444.756226,1147.651123 1444.756226,1170.802002 1444.756226,1194.354126 
	C1148.990234,1194.354126 853.475159,1194.354126 557.601929,1194.354126 
	C557.601929,898.901917 557.601929,603.386902 557.601929,307.557831 
	C853.186462,307.557831 1148.701416,307.557831 1444.756226,307.557831 
	C1444.756226,579.672913 1444.756226,851.586548 1444.756226,1124.000244 
M1176.500122,587.748657 
	C1137.077148,587.748657 1097.654297,587.748657 1058.168335,587.748657 
	C1058.168335,690.750183 1058.168335,793.163513 1058.168335,895.693848 
	C1082.801514,895.693848 1107.198364,895.693848 1132.022217,895.693848 
	C1132.022217,858.018372 1132.022217,820.609985 1132.022217,782.875061 
	C1149.412354,782.875061 1166.378052,782.986694 1183.339844,782.786011 
	C1186.965088,782.743103 1188.838867,783.736389 1190.539917,787.099548 
	C1208.242920,822.098328 1226.217285,856.959961 1243.926025,891.955933 
	C1245.547119,895.159302 1247.364746,896.054932 1250.755371,896.036194 
	C1275.253418,895.900452 1299.752686,895.963440 1324.251465,895.963440 
	C1325.649658,895.963440 1327.047852,895.963440 1329.084839,895.963440 
	C1306.439087,853.721680 1284.195190,812.229187 1261.912109,770.663757 
	C1263.655273,769.743164 1264.824585,769.124817 1265.994629,768.508118 
	C1308.337402,746.190979 1327.642944,699.725891 1312.178833,654.446899 
	C1298.645874,614.822266 1268.427856,594.832458 1228.388550,589.326416 
	C1211.669678,587.027222 1194.477295,588.170532 1176.500122,587.748657 
M774.055542,850.586792 
	C777.801758,840.992615 781.646362,831.434998 785.232483,821.781311 
	C786.269226,818.990356 787.705139,818.084961 790.689270,818.109131 
	C809.019470,818.257629 827.351501,818.183411 845.682922,818.183411 
	C863.667908,818.183411 881.652893,818.183411 899.705261,818.183411 
	C900.440491,819.867310 901.161682,821.361389 901.756226,822.904297 
	C910.535889,845.689026 919.404419,868.440735 927.961853,891.308716 
	C929.391785,895.129700 931.276978,896.134277 935.169800,896.063599 
	C949.163696,895.809448 963.165100,895.963806 977.163635,895.963806 
	C987.948730,895.963806 998.733826,895.963806 1009.940369,895.963806 
	C1009.404114,894.482422 1009.052673,893.396606 1008.623474,892.342468 
	C967.781372,792.032166 926.914490,691.731812 886.174194,591.380188 
	C884.911743,588.270386 883.275146,587.673828 880.279663,587.688049 
	C857.282593,587.797363 834.282410,587.917786 811.289001,587.606384 
	C806.635559,587.543396 804.752991,589.118225 803.084167,593.188354 
	C766.597534,682.177490 729.971313,771.109375 693.379578,860.055359 
	C688.530701,871.841675 683.723267,883.645081 678.829102,895.605530 
	C679.734253,895.779846 680.188965,895.943665 680.643738,895.943970 
	C704.807861,895.959290 728.972656,895.880615 753.135437,896.060608 
	C756.319031,896.084290 757.004089,894.412048 757.874512,892.172729 
	C763.170166,878.547913 768.514648,864.942200 774.055542,850.586792 
z"/>
<path fill="#FAFBF8" opacity="1.000000" stroke="none" 
	d="
M1177.000244,587.748657 
	C1194.477295,588.170532 1211.669678,587.027222 1228.388550,589.326416 
	C1268.427856,594.832458 1298.645874,614.822266 1312.178833,654.446899 
	C1327.642944,699.725891 1308.337402,746.190979 1265.994629,768.508118 
	C1264.824585,769.124817 1263.655273,769.743164 1261.912109,770.663757 
	C1284.195190,812.229187 1306.439087,853.721680 1329.084839,895.963440 
	C1327.047852,895.963440 1325.649658,895.963440 1324.251465,895.963440 
	C1299.752686,895.963440 1275.253418,895.900452 1250.755371,896.036194 
	C1247.364746,896.054932 1245.547119,895.159302 1243.926025,891.955933 
	C1226.217285,856.959961 1208.242920,822.098328 1190.539917,787.099548 
	C1188.838867,783.736389 1186.965088,782.743103 1183.339844,782.786011 
	C1166.378052,782.986694 1149.412354,782.875061 1132.022217,782.875061 
	C1132.022217,820.609985 1132.022217,858.018372 1132.022217,895.693848 
	C1107.198364,895.693848 1082.801514,895.693848 1058.168335,895.693848 
	C1058.168335,793.163513 1058.168335,690.750183 1058.168335,587.748657 
	C1097.654297,587.748657 1137.077148,587.748657 1177.000244,587.748657 
M1171.500000,653.179749 
	C1158.403687,653.179749 1145.307373,653.179749 1132.215088,653.179749 
	C1132.215088,675.703430 1132.215088,697.610291 1132.215088,719.878174 
	C1152.109009,719.878174 1171.728760,719.954224 1191.347290,719.838074 
	C1198.494751,719.795776 1205.735718,719.931152 1212.765137,718.868774 
	C1226.352417,716.815491 1236.912354,710.123413 1240.953247,696.181152 
	C1246.941895,675.518433 1234.197632,656.304993 1212.412109,654.154846 
	C1199.204712,652.851379 1185.810303,653.440796 1171.500000,653.179749 
z"/>
<path fill="#FAFAF7" opacity="1.000000" stroke="none" 
	d="
M773.949219,850.958496 
	C768.514648,864.942200 763.170166,878.547913 757.874512,892.172729 
	C757.004089,894.412048 756.319031,896.084290 753.135437,896.060608 
	C728.972656,895.880615 704.807861,895.959290 680.643738,895.943970 
	C680.188965,895.943665 679.734253,895.779846 678.829102,895.605530 
	C683.723267,883.645081 688.530701,871.841675 693.379578,860.055359 
	C729.971313,771.109375 766.597534,682.177490 803.084167,593.188354 
	C804.752991,589.118225 806.635559,587.543396 811.289001,587.606384 
	C834.282410,587.917786 857.282593,587.797363 880.279663,587.688049 
	C883.275146,587.673828 884.911743,588.270386 886.174194,591.380188 
	C926.914490,691.731812 967.781372,792.032166 1008.623474,892.342468 
	C1009.052673,893.396606 1009.404114,894.482422 1009.940369,895.963806 
	C998.733826,895.963806 987.948730,895.963806 977.163635,895.963806 
	C963.165100,895.963806 949.163696,895.809448 935.169800,896.063599 
	C931.276978,896.134277 929.391785,895.129700 927.961853,891.308716 
	C919.404419,868.440735 910.535889,845.689026 901.756226,822.904297 
	C901.161682,821.361389 900.440491,819.867310 899.705261,818.183411 
	C881.652893,818.183411 863.667908,818.183411 845.682922,818.183411 
	C827.351501,818.183411 809.019470,818.257629 790.689270,818.109131 
	C787.705139,818.084961 786.269226,818.990356 785.232483,821.781311 
	C781.646362,831.434998 777.801758,840.992615 773.949219,850.958496 
M854.812744,700.648865 
	C851.135437,691.271973 847.458130,681.895020 843.502625,671.808716 
	C832.433472,700.383118 821.663025,728.186401 810.822021,756.171753 
	C832.893372,756.171753 854.376587,756.171753 876.265320,756.171753 
	C869.063171,737.584534 862.050659,719.486755 854.812744,700.648865 
z"/>
<path fill="#030737" opacity="1.000000" stroke="none" 
	d="
M1172.000000,653.179810 
	C1185.810303,653.440796 1199.204712,652.851379 1212.412109,654.154846 
	C1234.197632,656.304993 1246.941895,675.518433 1240.953247,696.181152 
	C1236.912354,710.123413 1226.352417,716.815491 1212.765137,718.868774 
	C1205.735718,719.931152 1198.494751,719.795776 1191.347290,719.838074 
	C1171.728760,719.954224 1152.109009,719.878174 1132.215088,719.878174 
	C1132.215088,697.610291 1132.215088,675.703430 1132.215088,653.179749 
	C1145.307373,653.179749 1158.403687,653.179749 1172.000000,653.179810 
z"/>
<path fill="#060A3A" opacity="1.000000" stroke="none" 
	d="
M854.925476,701.018921 
	C862.050659,719.486755 869.063171,737.584534 876.265320,756.171753 
	C854.376587,756.171753 832.893372,756.171753 810.822021,756.171753 
	C821.663025,728.186401 832.433472,700.383118 843.502625,671.808716 
	C847.458130,681.895020 851.135437,691.271973 854.925476,701.018921 
z"/>
</svg>